<?xml version="1.0" standalone="no"?>
<!DOCTYPE svg PUBLIC "-//W3C//DTD SVG 20010904//EN"
 "http://www.w3.org/TR/2001/REC-SVG-20010904/DTD/svg10.dtd">
<svg version="1.0" xmlns="http://www.w3.org/2000/svg"
 width="706.000000pt" height="706.000000pt" viewBox="0 0 706.000000 706.000000"
 preserveAspectRatio="xMidYMid meet">
<metadata>
Created by potrace 1.14, written by Peter Selinger 2001-2017
</metadata>
<g transform="translate(0.000000,706.000000) scale(0.100000,-0.100000)"
fill="#000000" stroke="none">
<path d="M2879 6636 c-2 -2 -35 -7 -74 -11 -38 -3 -133 -17 -210 -30 -357 -62
-656 -168 -995 -353 -63 -34 -290 -179 -300 -192 -3 -3 -30 -23 -60 -45 -30
-22 -57 -42 -60 -46 -3 -3 -34 -30 -70 -59 -36 -30 -121 -110 -190 -179 -343
-345 -588 -739 -740 -1191 -47 -139 -93 -306 -105 -380 -3 -19 -8 -42 -10 -50
-5 -18 -11 -54 -20 -130 -4 -30 -9 -64 -11 -74 -25 -134 -25 -542 0 -736 2
-14 7 -54 11 -90 4 -36 9 -68 11 -71 1 -3 8 -32 13 -65 12 -71 15 -86 31 -144
12 -44 15 -56 25 -102 22 -101 120 -358 199 -522 328 -678 915 -1234 1607
-1520 170 -70 435 -152 559 -172 14 -2 45 -8 70 -14 166 -34 300 -45 570 -45
216 0 321 5 410 19 14 3 59 10 100 16 335 53 689 177 1005 350 149 82 491 323
481 339 -2 3 -62 6 -133 5 l-130 -1 -99 -65 c-241 -160 -515 -290 -787 -372
-64 -20 -127 -38 -139 -40 -13 -2 -79 -16 -148 -29 -205 -41 -323 -52 -565
-51 -231 0 -335 9 -530 45 -323 60 -602 161 -915 332 -57 31 -301 190 -323
210 -6 7 -37 31 -67 54 -68 53 -112 92 -220 197 -563 549 -881 1302 -883 2091
0 121 9 311 18 353 2 11 6 43 10 73 5 44 45 250 59 309 14 57 64 212 98 305
231 626 696 1177 1278 1515 335 195 740 332 1110 375 30 4 66 9 80 12 46 9
454 11 530 2 150 -16 177 -20 270 -35 394 -66 831 -245 1165 -478 l60 -42 129
2 c70 2 130 5 133 7 5 5 -101 88 -222 173 -362 257 -840 449 -1290 518 -55 8
-118 18 -140 22 -44 7 -590 16 -596 10z"/>
<path d="M3509 5438 c0 -7 -2 -20 -3 -28 -2 -8 -7 -71 -11 -140 -4 -69 -8
-145 -10 -170 -6 -69 -14 -187 -20 -270 -3 -41 -7 -106 -10 -145 -6 -80 -13
-186 -30 -435 -3 -41 -7 -100 -10 -130 -2 -30 -7 -100 -10 -155 -3 -55 -8
-120 -10 -145 -2 -25 -7 -88 -10 -140 -3 -52 -8 -115 -10 -140 -2 -25 -7 -91
-10 -146 -3 -56 -7 -121 -10 -145 -2 -24 -6 -89 -10 -144 -7 -113 -13 -202
-20 -290 -2 -33 -7 -98 -10 -145 -3 -47 -7 -110 -10 -140 -3 -30 -7 -95 -10
-145 -3 -49 -8 -115 -10 -145 -2 -30 -7 -98 -10 -150 -4 -52 -8 -115 -10 -140
-2 -25 -6 -88 -10 -140 -3 -52 -8 -121 -11 -152 l-6 -58 124 -1 c251 -1 561 1
564 3 1 2 5 68 8 148 4 80 9 183 11 230 2 47 7 141 10 210 4 69 8 157 10 195
2 39 7 131 10 206 3 75 8 165 10 200 3 57 11 204 20 414 12 262 19 626 19
1037 1 263 4 478 8 478 5 0 21 -57 43 -160 7 -33 187 -809 200 -865 18 -73
113 -489 119 -518 3 -12 44 -188 91 -392 48 -203 88 -379 90 -390 18 -85 86
-369 90 -374 3 -3 156 -5 339 -6 l334 0 11 51 c7 28 14 64 17 79 3 15 11 55
19 89 8 33 17 76 20 95 3 19 8 37 10 41 2 4 7 21 10 39 3 17 26 125 51 239 25
114 47 214 49 222 2 8 17 80 35 160 17 80 33 152 35 160 17 78 55 254 59 272
3 13 12 55 21 93 8 39 25 113 36 165 11 52 22 102 24 110 7 32 137 626 141
645 2 11 15 70 29 132 14 61 25 114 25 117 0 3 3 6 8 6 4 0 7 -138 8 -308 0
-169 4 -386 7 -482 11 -283 17 -419 22 -525 3 -55 7 -152 10 -215 3 -63 7
-153 10 -200 3 -47 7 -130 10 -185 3 -55 7 -143 10 -195 3 -52 7 -140 10 -195
8 -153 15 -281 20 -375 3 -47 7 -141 11 -210 3 -69 7 -149 9 -178 1 -29 4 -55
7 -57 3 -4 460 -7 650 -5 l37 0 -4 72 c-3 40 -7 100 -10 133 -2 33 -7 98 -10
145 -5 81 -11 159 -20 280 -2 30 -7 100 -10 155 -3 55 -8 118 -10 140 -3 22
-7 82 -10 134 -6 104 -12 191 -20 296 -3 39 -7 106 -10 150 -3 44 -8 107 -10
140 -2 33 -7 98 -10 145 -3 47 -8 108 -10 135 -2 28 -7 93 -10 145 -3 52 -8
118 -10 145 -2 28 -6 95 -10 150 -4 55 -8 120 -10 145 -2 25 -7 88 -10 140 -3
52 -8 115 -10 140 -2 25 -6 90 -10 145 -3 55 -8 125 -10 155 -2 30 -7 93 -10
140 -10 155 -16 235 -20 270 -2 19 -7 90 -10 158 -4 67 -8 130 -10 140 -2 9
-4 25 -4 35 -1 16 -30 17 -466 17 l-465 0 -5 -22 c-3 -13 -7 -34 -9 -48 -3
-19 -55 -276 -111 -550 -2 -8 -46 -229 -99 -490 -52 -261 -127 -632 -166 -825
-40 -192 -74 -361 -76 -375 -3 -14 -7 -34 -9 -45 -18 -100 -69 -344 -71 -342
-2 1 -5 14 -8 27 -3 14 -7 34 -10 45 -13 60 -80 366 -87 402 -9 48 -50 236
-79 363 -10 47 -21 96 -24 110 -2 14 -23 110 -45 214 -23 104 -43 199 -45 210
-2 12 -21 95 -41 186 -47 213 -44 200 -51 235 -3 17 -21 102 -40 190 -51 233
-82 377 -88 405 -3 14 -14 68 -26 120 -12 52 -24 106 -27 120 -3 14 -6 32 -8
40 -2 8 -4 18 -4 23 -1 4 -208 7 -461 7 -361 0 -460 -3 -461 -12z m524 -688
c3 -11 1 -20 -4 -20 -5 0 -9 9 -9 20 0 11 2 20 4 20 2 0 6 -9 9 -20z"/>
</g>
</svg>
